Coordinates
version=1
nRows=38
nColumns=12
inDegrees=yes

Units are S.I. units (second, meters, Newtons, ...)
Angles are in degrees

endheader
time	SC_y	SC_z	SC_x	AC_y	AC_z	AC_x	GH_y	GH_z	GH_yy	EL_x	PS_y
       0.0              -21.08          10.77          71.95          31.54          7.299         -7.925          153.6          34.01         -71.86          15.78          82.39
   0.02975              -21.08          10.77          71.94          31.55          7.296         -7.922          153.6          34.01         -71.86          15.78          82.38
   0.05949              -21.08          10.77          71.94          31.55          7.293         -7.919          153.6          34.02         -71.87          15.78          82.38
   0.08924              -21.08          10.78          71.93          31.55          7.289         -7.916          153.6          34.02         -71.87          15.78          82.38
     0.119              -21.08          10.78          71.93          31.55          7.285         -7.912          153.6          34.03         -71.87          15.78          82.38
    0.1487              -21.08          10.79          71.92          31.56          7.281         -7.909          153.5          34.03         -71.88          15.78          82.38
    0.1785              -21.08          10.79          71.91          31.56          7.277         -7.905          153.5          34.04         -71.88          15.78          82.38
    0.2082              -21.08          10.79           71.9          31.56          7.272         -7.901          153.5          34.05         -71.89          15.79          82.38
     0.238              -21.08           10.8          71.89          31.56          7.267         -7.897          153.5          34.05         -71.89          15.79          82.38
    0.2677              -21.08          10.81          71.88          31.57          7.262         -7.892          153.5          34.06          -71.9          15.79          82.37
    0.2975              -21.08          10.81          71.87          31.57          7.257         -7.887          153.5          34.07         -71.91          15.79          82.37
    0.3272              -21.07          10.82          71.86          31.58           7.25         -7.882          153.5          34.08         -71.91          15.79          82.37
    0.3569              -21.07          10.82          71.85          31.58          7.244         -7.876          153.5          34.09         -71.92           15.8          82.37
    0.3867              -21.07          10.83          71.84          31.58          7.237          -7.87          153.5           34.1         -71.93           15.8          82.37
    0.4164              -21.07          10.84          71.82          31.59          7.229         -7.863          153.5          34.11         -71.94           15.8          82.36
    0.4462              -21.07          10.85          71.81          31.59          7.221         -7.856          153.4          34.12         -71.95           15.8          82.36
    0.4759              -21.07          10.86          71.79           31.6          7.212         -7.848          153.4          34.14         -71.96          15.81          82.36
    0.5057              -21.06          10.87          71.78          31.61          7.202         -7.839          153.4          34.15         -71.97          15.81          82.35
    0.5354              -21.06          10.88          71.76          31.61          7.191          -7.83          153.4          34.17         -71.98          15.81          82.35
    0.5652              -21.06          10.89          71.74          31.62          7.179         -7.819          153.4          34.18         -71.99          15.82          82.35
    0.5949              -21.06          10.91          71.71          31.63          7.166         -7.808          153.3           34.2         -72.01          15.82          82.34
    0.6247              -21.05          10.92          71.69          31.64          7.152         -7.795          153.3          34.22         -72.03          15.83          82.34
    0.6544              -21.05          10.94          71.66          31.65          7.136         -7.781          153.3          34.24         -72.04          15.83          82.33
    0.6842              -21.05          10.96          71.63          31.66          7.119         -7.766          153.2          34.27         -72.06          15.84          82.33
    0.7139              -21.04          10.98          71.59          31.67          7.099         -7.749          153.2           34.3         -72.09          15.84          82.32
    0.7436              -21.04           11.0          71.55          31.68          7.078          -7.73          153.2          34.33         -72.11          15.85          82.31
    0.7734              -21.03          11.03          71.51           31.7          7.053         -7.709          153.1          34.36         -72.14          15.86          82.31
    0.8031              -21.02          11.05          71.46          31.72          7.026         -7.685          153.1           34.4         -72.17          15.87           82.3
    0.8329              -21.02          11.09          71.41          31.74          6.995         -7.658          153.0          34.45          -72.2          15.88          82.29
    0.8626              -21.01          11.12          71.34          31.76           6.96         -7.627          153.0           34.5         -72.24          15.89          82.28
    0.8924               -21.0          11.17          71.27          31.78           6.92         -7.592          152.9          34.56         -72.29          15.91          82.26
    0.9221              -20.99          11.21          71.19          31.81          6.875         -7.551          152.8          34.62         -72.34          15.92          82.25
    0.9519              -20.98          11.27           71.1          31.85          6.822         -7.505          152.7           34.7          -72.4          15.94          82.23
    0.9816              -20.97          11.34          70.99          31.89           6.76         -7.451          152.6          34.79         -72.47          15.96          82.21
     1.011              -20.95          11.41          70.86          31.93          6.688         -7.388          152.5          34.89         -72.55          15.98          82.19
     1.041              -20.93           11.5          70.71          31.99          6.603         -7.313          152.3          35.02         -72.65          16.01          82.16
     1.071              -20.91          11.61          70.53          32.05          6.502         -7.225          152.1          35.16         -72.76          16.05          82.13
     1.101              -20.88          11.73          70.31          32.13          6.382         -7.118          151.9          35.34          -72.9          16.09          82.09
